<?xml version="1.0" encoding="UTF-8"?>
<svg width="95px" height="92px" viewBox="0 0 95 92" version="1.1" xmlns="http://www.w3.org/2000/svg" xmlns:xlink="http://www.w3.org/1999/xlink">
    <!-- Generator: Sketch 52.6 (67491) - http://www.bohemiancoding.com/sketch -->
    <title>badge/cert/Social media</title>
    <desc>Created with Sketch.</desc>
    <defs>
        <path d="M47.5,80.5 C27.9836957,80.5 11.875,65.1331878 11.875,45.849345 C11.875,26.8668122 27.9836957,11.5 47.5,11.5 C67.0163043,11.5 83.125,26.8668122 83.125,46.150655 C83.125,65.1331878 67.0163043,80.5 47.5,80.5 M92.15,52.9322821 C93.7333333,51.0570316 95,48.5566977 95,46.0563637 C94.6833333,43.5560298 93.7333333,41.0556959 92.15,39.1804454 C91.5166667,38.2428202 90.8833333,37.3051949 90.5666667,36.3675697 C90.5666667,35.1174027 90.5666667,34.1797775 90.8833333,32.9296105 C91.5166667,30.4292766 91.5166667,27.9289426 90.5666667,25.7411504 C89.3,23.5533582 87.4,21.9906495 84.8666667,21.0530243 C83.9166667,20.7404825 82.9666667,19.8028573 82.0166667,19.1777738 C81.3833333,18.2401486 81.0666667,17.3025234 80.75,16.0523564 C80.4333333,13.5520224 79.1666667,11.3642302 77.2666667,9.48897978 C75.05,8.23881281 72.5166667,7.30118758 70.3,7.61372932 C69.0333333,7.61372932 67.7666667,7.30118758 66.8166667,6.98864584 C65.8666667,6.36356235 65.2333333,5.42593712 64.6,4.48831189 C63.0166667,2.30051969 61.1166667,0.737810972 58.5833333,0.112727486 C56.05,-0.199814258 53.5166667,0.112727486 51.3,1.36289446 C50.35,1.98797795 49.0833333,2.30051969 47.8166667,2.61306143 C46.55,2.30051969 45.6,1.98797795 44.3333333,1.6754362 C42.1166667,0.425269229 39.5833333,0.112727486 37.05,0.425269229 C34.5166667,1.05035272 32.6166667,2.61306143 31.0333333,4.80085363 C30.4,5.73847886 29.45,6.36356235 28.5,6.98864584 C27.2333333,7.30118758 25.9666667,7.30118758 25.0166667,7.30118758 C22.4833333,7.30118758 19.95,7.92627107 18.05,9.17643804 C15.8333333,11.0516885 14.8833333,13.2394807 14.25,15.7398146 C13.9333333,16.9899816 13.6166667,17.9276069 12.9833333,18.8652321 C12.35,19.4903156 11.4,20.1153991 10.1333333,20.7404825 C7.91666667,21.6781078 5.7,23.5533582 4.43333333,25.7411504 C3.48333333,27.9289426 3.48333333,30.4292766 4.11666667,32.9296105 C4.43333333,34.1797775 4.43333333,35.1174027 4.43333333,36.3675697 C4.11666667,37.6177367 3.48333333,38.5553619 2.85,39.1804454 C0.95,41.0556959 0,43.5560298 0,46.0563637 C0.316666667,48.5566977 1.26666667,51.0570316 2.85,52.9322821 C3.48333333,53.8699073 4.11666667,54.8075326 4.43333333,55.7451578 C4.43333333,56.9953248 4.43333333,57.93295 4.11666667,59.183117 C3.48333333,61.6834509 3.48333333,64.1837849 4.43333333,66.3715771 C5.7,68.5593693 7.6,70.122078 10.1333333,71.0597032 C11.0833333,71.3753704 12.0333333,72.3098702 12.9833333,72.9380791 C13.6166667,73.8725789 13.9333333,74.8102041 14.25,76.0634965 C14.5666667,78.560705 15.8333333,80.7516227 17.7333333,82.6237477 C19.95,83.8770401 22.4833333,84.8115399 24.7,84.4989982 C25.9666667,84.4989982 26.9166667,84.4989982 28.1833333,85.1240816 C29.1333333,85.7491651 30.0833333,86.6867904 30.7166667,87.3118739 C32.3,89.4996661 34.2,91.0623748 36.7333333,91.6905837 C39.2666667,92 41.8,91.6905837 44.0166667,90.4372913 C44.9666667,89.8122078 46.2333333,89.4996661 47.5,89.4996661 C48.7666667,89.8122078 49.7166667,90.127875 50.9833333,90.4372913 C52.8833333,91.3749165 54.7833333,91.6905837 56.6833333,92 C57.3166667,92 57.6333333,92 58.2666667,91.6905837 C60.8,91.0623748 62.7,89.4996661 64.2833333,87.3118739 C64.9166667,86.3742486 65.8666667,85.7491651 66.8166667,85.1240816 C68.0833333,84.8115399 69.0333333,84.4989982 70.3,84.4989982 C72.8333333,84.4989982 75.3666667,83.8770401 77.2666667,82.6237477 C79.1666667,80.7516227 80.4333333,78.560705 80.75,76.0634965 C81.0666667,74.8102041 81.3833333,73.8725789 82.0166667,72.9380791 C82.9666667,72.3098702 83.9166667,71.3753704 84.8666667,71.0597032 C87.0833333,70.122078 89.3,68.5593693 90.5666667,66.3715771 C91.5166667,64.1837849 91.5166667,61.3709092 90.8833333,59.183117 C90.5666667,57.93295 90.5666667,56.9953248 90.5666667,55.7451578 C90.8833333,54.8075326 91.5166667,53.8699073 92.15,52.9322821 M47.5,19.1666667 C62.8028306,19.1666667 75.2083333,31.1804167 75.2083333,46 C75.2083333,60.8195833 62.8028306,72.8333333 47.5,72.8333333 C32.1971694,72.8333333 19.7916667,60.8195833 19.7916667,46 C19.7916667,31.1804167 32.1971694,19.1666667 47.5,19.1666667" id="path-1"></path>
        <linearGradient x1="2.38161671%" y1="97.6183833%" x2="100%" y2="3.33066907e-14%" id="linearGradient-3">
            <stop stop-color="#FF7A59" offset="0%"></stop>
            <stop stop-color="#FF8F59" offset="100%"></stop>
        </linearGradient>
        <path d="M20.1375969,14.0172573 C19.2368781,14.5364135 17.7626594,14.5364135 16.8630969,14.0172573 C15.9623781,13.4969448 15.9623781,12.6459448 16.8630969,12.1267885 C17.7626594,11.606476 19.2368781,11.606476 20.1375969,12.1267885 C21.0371594,12.6459448 21.0371594,13.4969448 20.1375969,14.0172573 M36.3135344,12.466726 C37.2281281,12.799726 37.2281281,13.3443198 36.3135344,13.6773198 L35.4821906,13.979101 L35.4821906,24.0315385 C35.4821906,24.9889135 34.7063469,25.7659135 33.7478156,25.7659135 C32.7904406,25.7659135 32.0134406,24.9889135 32.0134406,24.0315385 L32.0134406,15.2405698 C31.6029719,15.389726 31.1601281,15.5504448 30.7068781,15.7157885 L25.6309406,17.5611635 L21.8280344,18.9451948 C20.9122844,19.2770385 20.1630344,19.5499135 20.1630344,19.5499135 C20.1630344,19.5499135 20.2277844,19.5267885 20.3272219,19.4897885 C20.2277844,19.5267885 20.1630344,19.5499135 20.1630344,19.5499135 C20.1630344,19.5499135 19.7895656,19.6851948 19.3316906,19.8516948 C18.8738156,20.0181948 18.1257219,20.0181948 17.6678469,19.8516948 C17.2111281,19.6851948 16.8365031,19.5499135 16.8365031,19.5499135 C16.8365031,19.5487573 16.0872531,19.2770385 15.1715031,18.9451948 L10.4250969,17.2189135 C9.51050312,16.8847573 8.01200312,16.3413198 7.09740937,16.0083198 L0.687159375,13.6773198 C-0.228590625,13.3443198 -0.228590625,12.799726 0.687159375,12.466726 L7.09740937,10.135726 C8.01200312,9.80272604 9.51050312,9.25813229 10.4250969,8.92513229 L15.1715031,7.20000729 C16.0872531,6.86585104 16.8365031,6.59413229 16.8365031,6.59413229 C16.8365031,6.59413229 17.2111281,6.45769479 17.6678469,6.29119479 C18.1257219,6.12585104 18.8738156,6.12585104 19.3316906,6.29119479 C19.7895656,6.45769479 20.1630344,6.59413229 20.1630344,6.59413229 C20.1630344,6.59413229 20.3515031,6.66235104 20.6521281,6.77103854 C20.5249406,6.72478854 20.3700031,6.66928854 20.2960031,6.64153854 C20.5480656,6.73403854 21.1412219,6.95025729 21.8280344,7.20000729 L26.5744406,8.92513229 L24.9244719,8.32503854 L29.2661906,9.90331979 C30.1819406,10.2363198 31.6781281,10.7809135 32.5938781,11.1139135 L36.3135344,12.466726 Z M27.958125,20.1845792 L29.1247812,19.7602354 L29.1247812,24.0314229 C29.123625,25.6050792 28.0887812,27.1798917 26.0214062,28.3731417 C25.904625,28.4413604 25.765875,28.4876104 25.6433125,28.5512042 C24.0950937,29.2299229 22.13525,29.8704854 19.966125,30.0843917 C18.9914062,30.1607042 18.0085937,30.1607042 17.033875,30.0843917 C14.86475,29.8704854 12.9025937,29.2299229 11.3555312,28.5500479 C11.234125,28.4876104 11.095375,28.4413604 10.9785937,28.3731417 C8.9100625,27.1787354 7.876375,25.6039229 7.876375,24.0302667 L7.876375,19.7602354 C8.24290625,19.8943604 8.63603125,20.0365792 9.02453125,20.1776417 L11.6677187,21.1396417 L15.1711562,22.4138292 C16.0869062,22.7468292 16.8361562,23.0185479 16.8361562,23.0185479 C16.8361562,23.0185479 17.2107812,23.1538292 17.6686562,23.3214854 C18.125375,23.4868292 18.874625,23.4868292 19.3313437,23.3214854 L19.3325,23.3214854 C19.790375,23.1538292 20.1638437,23.0185479 20.1638437,23.0185479 C20.1638437,23.0185479 20.169625,23.0162354 20.17425,23.0150792 C20.1996875,23.0058292 20.9292812,22.7398917 21.8276875,22.4138292 L27.958125,20.1845792 Z" id="path-4"></path>
    </defs>
    <g id="Symbols" stroke="none" stroke-width="1" fill="none" fill-rule="evenodd">
        <g id="Certification-section---badges" transform="translate(-65.000000, -184.000000)">
            <g transform="translate(0.000000, 10.000000)" id="badge/cert/Social-media">
                <g transform="translate(65.000000, 174.000000)">
                    <g id="Icons/Utilities/Certification">
                        <mask id="mask-2" fill="white">
                            <use xlink:href="#path-1"></use>
                        </mask>
                        <use fill="#3F5D75" fill-rule="evenodd" xlink:href="#path-1"></use>
                        <g id="Colors/Gradients/Lorax-Sorbet" mask="url(#mask-2)" fill="url(#linearGradient-3)" fill-rule="evenodd">
                            <polygon id="Rectangle-3-Copy-37" points="0 0 95 0 95 92 0 92"></polygon>
                        </g>
                    </g>
                    <g id="Icons/Utilities/Inbound-Certification" transform="translate(27.422680, 27.422680)">
                        <mask id="mask-5" fill="white">
                            <use xlink:href="#path-4"></use>
                        </mask>
                        <use id="Mask" fill="#3F5D75" fill-rule="evenodd" xlink:href="#path-4"></use>
                        <g id="Colors/Light-Greys/Olaf" mask="url(#mask-5)" fill="#FFFFFF" fill-rule="evenodd">
                            <polygon id="Rectangle-3-Copy-36" points="0 0 37 0 37 37 0 37"></polygon>
                        </g>
                    </g>
                </g>
            </g>
        </g>
    </g>
</svg>